HIERARCHY
ROOT joint_Root
{
	OFFSET 0.0 0.0 0.0
	CHANNELS 6 Xposition Yposition Zposition Zrotation Xrotation Yrotation 
	JOINT Hips
	{
		OFFSET 4.5925 91.4895 -427.239
		CHANNELS 6 Xposition Yposition Zposition Zrotation Xrotation Yrotation 
		JOINT Spine
		{
			OFFSET 15.7357 0.0 0.0
			CHANNELS 6 Xposition Yposition Zposition Zrotation Xrotation Yrotation 
			JOINT Chest
			{
				OFFSET 8.98455 -0.406207 0.0
				CHANNELS 6 Xposition Yposition Zposition Zrotation Xrotation Yrotation 
				JOINT Neck
				{
					OFFSET 16.3773 0.0 0.0
					CHANNELS 6 Xposition Yposition Zposition Zrotation Xrotation Yrotation 
					JOINT Head
					{
						OFFSET 6.45672 0.0 0.0
						CHANNELS 6 Xposition Yposition Zposition Zrotation Xrotation Yrotation 
						End Site
						{
							OFFSET 0.0 0.0 0.0
						}
					}
				}
				JOINT Shoulder_L
				{
					OFFSET 12.9942 -0.242716 4.98039
					CHANNELS 6 Xposition Yposition Zposition Zrotation Xrotation Yrotation 
					JOINT UpperArm_L
					{
						OFFSET 5.34809 0.0 0.0
						CHANNELS 6 Xposition Yposition Zposition Zrotation Xrotation Yrotation 
						JOINT LowerArm_L
						{
							OFFSET 24.3286 1.87007e-05 0.0
							CHANNELS 6 Xposition Yposition Zposition Zrotation Xrotation Yrotation 
							JOINT Hand_L
							{
								OFFSET 22.2916 0.0 0.0
								CHANNELS 6 Xposition Yposition Zposition Zrotation Xrotation Yrotation 
								End Site
								{
									OFFSET 0.0 0.0 0.0
								}
							}
						}
					}
				}
				JOINT Shoulder_R
				{
					OFFSET 12.9945 -0.242716 -4.98039
					CHANNELS 6 Xposition Yposition Zposition Zrotation Xrotation Yrotation 
					JOINT UpperArm_R
					{
						OFFSET -5.34813 0.0 0.0
						CHANNELS 6 Xposition Yposition Zposition Zrotation Xrotation Yrotation 
						JOINT LowerArm_R
						{
							OFFSET -24.3289 0.000322201 0.0
							CHANNELS 6 Xposition Yposition Zposition Zrotation Xrotation Yrotation 
							JOINT Hand_R
							{
								OFFSET -22.2915 -0.000108084 0.0
								CHANNELS 6 Xposition Yposition Zposition Zrotation Xrotation Yrotation 
								End Site
								{
									OFFSET 0.0 0.0 0.0
								}
							}
						}
					}
				}
			}
		}
		JOINT UpperLeg_L
		{
			OFFSET -2.19248 -6.46944 0.0
			CHANNELS 6 Xposition Yposition Zposition Zrotation Xrotation Yrotation 
			JOINT LowerLeg_L
			{
				OFFSET 39.0811 0.0 -1.23785e-05
				CHANNELS 6 Xposition Yposition Zposition Zrotation Xrotation Yrotation 
				JOINT Foot_L
				{
					OFFSET 40.9854 0.0 -1.26872e-05
					CHANNELS 6 Xposition Yposition Zposition Zrotation Xrotation Yrotation 
					JOINT Toes_L
					{
						OFFSET 11.7543 0.0 0.0
						CHANNELS 6 Xposition Yposition Zposition Zrotation Xrotation Yrotation 
						End Site
						{
							OFFSET 0.0 0.0 0.0
						}
					}
				}
			}
		}
		JOINT UpperLeg_R
		{
			OFFSET -2.19251 6.46944 0.0
			CHANNELS 6 Xposition Yposition Zposition Zrotation Xrotation Yrotation 
			JOINT LowerLeg_R
			{
				OFFSET -39.0811 -0.00228153 -0.0401928
				CHANNELS 6 Xposition Yposition Zposition Zrotation Xrotation Yrotation 
				JOINT Foot_R
				{
					OFFSET -40.9854 0.0 0.0
					CHANNELS 6 Xposition Yposition Zposition Zrotation Xrotation Yrotation 
					JOINT Toes_R
					{
						OFFSET -11.7543 0.0 0.0
						CHANNELS 6 Xposition Yposition Zposition Zrotation Xrotation Yrotation 
						End Site
						{
							OFFSET 0.0 0.0 0.0
						}
					}
				}
			}
		}
	}
}
MOTION
Frames:	4
Frame Time:	0.0333333
0.000000 0.000000 0.000000 0.000000 0.000000 -0.000000 135.481000 89.448400 142.837000 87.575500 -51.134800 -4.866520 15.735700 0.000005 -0.000001 70.340300 80.474100 -70.522100 8.984550 -0.406207 -0.000000 10.211300 -6.371680 0.206249 16.377300 -0.000001 -0.000001 0.813004 -12.713400 1.703740 6.456720 -0.000001 -0.000000 -1.589670 -15.880500 10.201500 12.994200 -0.242716 4.980390 -90.725200 2.925330 -76.070500 5.348090 -0.000007 -0.000001 -56.230800 17.445700 -25.721900 24.328600 0.000019 0.000005 12.394800 17.130100 -36.727700 22.291600 -0.000001 0.000005 17.633600 5.200660 2.702730 12.994500 -0.242716 -4.980390 88.318400 9.026870 -79.401900 -5.348130 -0.000001 -0.000004 -66.166500 30.848400 -5.532630 -24.328900 0.000322 -0.000009 2.810560 5.148130 -28.692700 -22.291500 -0.000108 -0.000004 17.791800 5.423890 -3.730460 -2.192480 -6.469440 -0.000000 -178.387000 -28.703300 -6.499010 39.081100 -0.000007 -0.000012 0.007182 -0.010960 33.231700 40.985400 -0.000006 -0.000013 0.631107 -0.880633 -76.105900 11.754300 -0.000000 0.000003 -1.010630 -1.295780 -18.889000 -2.192510 6.469440 -0.000001 -168.023000 16.214600 152.931000 -39.081100 -0.002282 -0.040193 -0.215415 0.349474 32.039900 -40.985400 0.000008 0.000006 10.411000 0.795080 -61.023400 -11.754300 -0.000006 -0.000006 -0.005370 -0.065004 -19.218200
0.000000 0.000000 0.000000 0.000000 0.000000 -0.000000 134.110000 89.255900 144.765000 87.964500 -51.413300 -4.126720 15.735700 0.000005 -0.000001 71.159600 80.352600 -71.018400 8.984550 -0.406207 -0.000000 10.547800 -6.184560 0.853909 16.377300 -0.000001 -0.000001 1.137600 -12.967800 1.856520 6.456720 -0.000001 -0.000000 -1.456810 -16.092500 9.826180 12.994200 -0.242716 4.980390 -90.671200 2.711800 -76.091700 5.348090 -0.000007 -0.000001 -58.315100 18.660900 -24.893500 24.328600 0.000019 0.000005 12.824700 17.515700 -37.103300 22.291600 -0.000001 0.000005 17.794900 5.196330 2.811070 12.994500 -0.242716 -4.980390 88.266200 9.194130 -79.272800 -5.348130 -0.000001 -0.000004 -65.157700 30.822500 -5.993460 -24.328900 0.000322 -0.000009 2.660010 5.081610 -27.687800 -22.291500 -0.000108 -0.000004 17.745600 5.418840 -3.559960 -2.192480 -6.469440 -0.000000 -177.516000 -29.717600 -7.050640 39.081100 -0.000007 -0.000012 0.040565 -0.051103 38.441100 40.985400 -0.000006 -0.000013 -0.282939 1.042410 -74.309400 11.754300 -0.000000 0.000003 -0.010231 -0.105363 -20.869900 -2.192510 6.469440 -0.000001 -169.455000 15.218600 153.704000 -39.081100 -0.002282 -0.040193 -0.279976 0.406345 34.881200 -40.985400 0.000008 0.000006 10.290400 -0.223390 -63.711600 -11.754300 -0.000006 -0.000006 -0.002377 -0.033341 -17.928900
0.000000 0.000000 0.000000 0.000000 0.000000 -0.000000 132.572000 89.183300 146.487000 88.710400 -51.913900 -3.107870 15.735700 0.000005 -0.000001 72.214100 80.405500 -72.002100 8.984550 -0.406207 -0.000000 10.556600 -5.815860 0.961784 16.377300 -0.000001 -0.000001 1.665540 -13.306800 2.150450 6.456720 -0.000001 -0.000000 -0.751105 -16.436300 9.832850 12.994200 -0.242716 4.980390 -90.590700 2.368480 -75.993100 5.348090 -0.000007 -0.000001 -59.987100 20.544200 -23.584600 24.328600 0.000019 0.000005 12.854100 17.308000 -37.487900 22.291600 -0.000001 0.000005 17.205700 5.205080 2.590770 12.994500 -0.242716 -4.980390 88.213100 9.331930 -79.109600 -5.348130 -0.000001 -0.000004 -64.751500 30.746800 -6.397880 -24.328900 0.000322 -0.000009 2.878630 5.856180 -26.244200 -22.291500 -0.000108 -0.000004 17.763800 5.410080 -3.267970 -2.192480 -6.469440 -0.000000 -176.561000 -30.334600 -9.342000 39.081100 -0.000007 -0.000012 0.117694 -0.113891 45.939800 40.985400 -0.000006 -0.000013 -1.490400 3.225640 -69.271400 11.754300 -0.000000 0.000003 -0.040867 -0.263558 -27.405900 -2.192510 6.469440 -0.000001 -170.825000 15.139900 155.082000 -39.081100 -0.002282 -0.040193 -0.351702 0.479065 36.539200 -40.985400 0.000008 0.000006 9.450010 -0.219757 -66.052400 -11.754300 -0.000006 -0.000006 -0.000956 -0.014784 -17.174400
0.000000 0.000000 0.000000 0.000000 0.000000 -0.000000 131.078000 89.121600 148.035000 89.850400 -52.552600 -1.631800 15.735700 0.000005 -0.000001 73.392900 80.450600 -73.311700 8.984550 -0.406207 -0.000000 10.574600 -5.418720 0.664337 16.377300 -0.000001 -0.000001 1.951440 -13.565200 2.457400 6.456720 -0.000001 -0.000000 -0.388266 -16.700600 9.893900 12.994200 -0.242716 4.980390 -90.585300 2.343420 -75.972200 5.348090 -0.000007 -0.000001 -60.929100 22.507400 -21.777200 24.328600 0.000019 0.000005 13.255400 17.284200 -38.409500 22.291600 -0.000001 0.000005 16.120600 5.220350 2.203390 12.994500 -0.242716 -4.980390 88.211300 9.294520 -79.056300 -5.348130 -0.000001 -0.000004 -64.893300 30.284500 -6.686360 -24.328900 0.000322 -0.000009 3.019130 6.420990 -25.257300 -22.291500 -0.000108 -0.000004 17.728300 5.400670 -2.959120 -2.192480 -6.469440 -0.000000 -176.180000 -28.003800 -13.187300 39.081100 -0.000007 -0.000012 0.215201 -0.152705 54.640300 40.985400 -0.000006 -0.000013 -3.354780 3.718380 -62.584700 11.754300 -0.000000 0.000003 -0.027577 -0.206149 -25.016800 -2.192510 6.469440 -0.000001 -172.379000 14.750700 156.692000 -39.081100 -0.002282 -0.040193 -0.378569 0.490978 37.874300 -40.985400 0.000008 0.000006 9.052190 -0.225027 -68.171500 -11.754300 -0.000006 -0.000006 -0.000219 -0.003601 -16.720100
